<svg width="65" height="65" viewBox="0 0 65 65" fill="none" xmlns="http://www.w3.org/2000/svg">
<path d="M11.6577 65.0001C11.006 64.7682 10.3069 64.6227 9.7128 64.2892C7.74418 63.1889 6.73194 61.4674 6.72347 59.2128C6.70316 54.2294 6.7167 49.2478 6.7167 44.2645C6.7167 32.7151 6.71332 21.1674 6.71839 9.6181C6.72009 6.50182 8.68194 4.16927 11.7187 3.74271C12.6107 3.61745 13.5299 3.68516 14.4371 3.68008C15.9775 3.67331 17.5196 3.69531 19.0599 3.66315C19.3342 3.65807 19.6744 3.51758 19.8657 3.32461C21.9409 1.21719 24.4444 0.137241 27.4016 0.128777C30.7582 0.120314 34.1149 0.122006 37.4715 0.128777C40.4304 0.135548 42.9322 1.21719 45.0092 3.32292C45.2004 3.51758 45.5407 3.66146 45.8132 3.66484C47.924 3.69193 50.0348 3.67839 52.1473 3.68008C55.7155 3.68516 58.1564 6.11419 58.1564 9.68242C58.1598 26.1085 58.1581 42.5345 58.1564 58.9589C58.1564 62.0971 56.4536 64.213 53.383 64.9138C53.3237 64.9273 53.2713 64.9697 53.2154 65.0001C39.364 65.0001 25.5108 65.0001 11.6577 65.0001ZM17.3621 7.52253C17.3164 7.51068 17.2758 7.49206 17.2369 7.49206C15.7795 7.48867 14.3237 7.48529 12.8663 7.48529C11.2125 7.48529 10.5168 8.1793 10.5168 9.82461C10.5168 26.166 10.5168 42.5074 10.5168 58.8488C10.5168 60.4975 11.2125 61.1932 12.8629 61.1932C25.89 61.1932 38.9171 61.1932 51.9442 61.1932C53.6843 61.1932 54.358 60.5212 54.358 58.7896C54.358 42.4905 54.358 26.1914 54.358 9.89063C54.358 9.74336 54.3614 9.5944 54.3563 9.44714C54.3241 8.30117 53.5387 7.5056 52.3911 7.48698C51.3348 7.47005 50.2802 7.48359 49.224 7.48359C48.6417 7.48359 48.0611 7.48359 47.5127 7.48359C47.6193 8.4332 47.7598 9.30833 47.8072 10.1868C47.88 11.4902 47.0861 12.301 45.7726 12.301C36.8842 12.3061 27.9957 12.3061 19.1073 12.301C17.7718 12.301 16.9881 11.4767 17.0693 10.1276C17.1201 9.2711 17.2589 8.41797 17.3621 7.52253ZM43.7193 8.46875C43.6398 8.2487 43.5856 8.05065 43.4993 7.86615C42.3364 5.37956 40.3796 4.00677 37.6391 3.95261C34.1792 3.8832 30.7176 3.93229 27.256 3.94076C26.8582 3.94245 26.4554 3.99492 26.0627 4.06432C23.7978 4.46211 21.6532 6.40365 21.2029 8.47044C28.6931 8.46875 36.1749 8.46875 43.7193 8.46875Z" fill="white"/>
<path d="M17.3621 7.5221C17.2572 8.41754 17.1184 9.27067 17.0676 10.1289C16.9864 11.478 17.7701 12.3023 19.1056 12.3023C27.994 12.3074 36.8825 12.3074 45.7709 12.3023C47.0861 12.3023 47.8783 11.4915 47.8055 10.1881C47.7564 9.30791 47.6176 8.43447 47.511 7.48486C48.0594 7.48486 48.6417 7.48486 49.2223 7.48486C50.2785 7.48486 51.3331 7.47301 52.3894 7.48824C53.5387 7.50517 54.3224 8.30074 54.3546 9.4484C54.358 9.59567 54.3563 9.74462 54.3563 9.89189C54.3563 26.191 54.3563 42.4901 54.3563 58.7908C54.3563 60.5225 53.6826 61.1945 51.9425 61.1945C38.9154 61.1945 25.8883 61.1945 12.8612 61.1945C11.2108 61.1945 10.5151 60.4988 10.5151 58.8501C10.5151 42.5087 10.5151 26.1673 10.5151 9.82587C10.5151 8.17887 11.2125 7.48486 12.8646 7.48655C14.322 7.48655 15.7778 7.48994 17.2352 7.49332C17.2775 7.49163 17.3181 7.51025 17.3621 7.5221ZM34.6075 26.5803C34.3925 26.3467 34.1724 26.0911 33.9338 25.8524C32.3104 24.2224 30.6905 22.5889 29.0554 20.969C28.2006 20.1226 27.1054 20.0685 26.2912 20.8725C23.9806 23.1593 21.6887 25.4648 19.4035 27.7754C18.9279 28.2561 18.7688 28.8638 18.9431 29.529C19.3341 31.0135 21.0641 31.4502 22.1982 30.333C23.852 28.703 25.4821 27.0492 27.1223 25.4073C27.2814 25.2481 27.449 25.0992 27.6233 24.935C29.5006 26.8071 31.3354 28.6403 33.1737 30.4701C34.1995 31.4925 35.2321 31.4925 36.2612 30.4634C37.9641 28.7639 39.6619 27.0576 41.3631 25.3565C41.5222 25.1974 41.6897 25.0484 41.8776 24.8724C42.1383 26.3112 42.9085 27.0052 44.0545 26.885C45.1344 26.7733 45.737 25.9574 45.7387 24.6032C45.7387 23.2101 45.7421 21.817 45.737 20.4239C45.7319 19.0342 44.9804 18.2826 43.5754 18.2691C42.3939 18.2589 41.2107 18.2606 40.0292 18.2691C39.5671 18.2725 39.0948 18.2539 38.6446 18.3402C37.7119 18.5179 37.094 19.3321 37.1262 20.2462C37.1567 21.1366 37.805 21.878 38.7055 22.0506C38.8375 22.076 38.9679 22.0997 39.105 22.1251C37.6052 23.613 36.141 25.0619 34.6075 26.5803ZM38.9019 39.4906C36.3916 39.4906 33.8813 39.4838 31.3727 39.494C30.1252 39.4991 29.2805 40.2658 29.2703 41.3695C29.2602 42.4884 30.1336 43.2856 31.3964 43.3009C32.0718 43.3093 32.7455 43.3026 33.4209 43.3026C37.6814 43.3026 41.942 43.2992 46.2025 43.3043C47.0421 43.306 47.7412 43.0554 48.161 42.2802C48.8617 40.9869 47.9629 39.5143 46.4293 39.4991C43.9224 39.472 41.4121 39.4923 38.9019 39.4906ZM38.8714 50.4136C36.3611 50.4136 33.8508 50.4102 31.3405 50.4153C30.1082 50.417 29.2619 51.2024 29.2703 52.3179C29.2788 53.4182 30.1421 54.2121 31.3625 54.2138C36.3408 54.2188 41.319 54.2188 46.2973 54.2138C47.5245 54.2121 48.3844 53.4283 48.398 52.3264C48.4115 51.1906 47.5567 50.417 46.2736 50.4153C43.8073 50.4102 41.3394 50.4119 38.8714 50.4136ZM20.2008 40.8414C19.9892 40.5688 19.8555 40.3488 19.6761 40.1744C18.828 39.3501 17.677 39.3162 16.9085 40.078C16.1383 40.8431 16.1603 42.0009 16.9779 42.8489C17.5483 43.4414 18.1357 44.0169 18.7197 44.5958C19.7455 45.6148 20.7916 45.6267 21.8072 44.6178C23.0632 43.3686 24.3141 42.1143 25.5599 40.8566C26.4977 39.9104 26.5603 38.7543 25.7309 37.9485C24.9116 37.153 23.8046 37.2325 22.8736 38.1601C22.0239 39.0082 21.1792 39.8596 20.2008 40.8414ZM20.1991 51.7729C19.9841 51.4902 19.8538 51.2668 19.6744 51.0924C18.8162 50.2579 17.6871 50.2257 16.9102 50.9976C16.1383 51.7644 16.162 52.9239 16.9796 53.7669C17.567 54.3729 18.1679 54.9636 18.7654 55.5578C19.7336 56.5192 20.8017 56.5311 21.7615 55.5798C23.0327 54.317 24.2989 53.0492 25.5616 51.7763C26.4977 50.8334 26.562 49.6688 25.736 48.8665C24.9269 48.0828 23.7944 48.164 22.8753 49.0798C22.0256 49.9278 21.1843 50.7809 20.1991 51.7729Z" fill="white"/>
<path d="M43.7193 8.46898C36.1749 8.46898 28.6931 8.46898 21.2029 8.46898C21.6514 6.40219 23.7978 4.46065 26.0626 4.06286C26.4554 3.99346 26.8582 3.94099 27.256 3.9393C30.7176 3.92914 34.1792 3.88174 37.6391 3.95114C40.3796 4.007 42.3363 5.3781 43.4992 7.86469C43.5856 8.04919 43.6397 8.24893 43.7193 8.46898Z" fill="#0FADE9"/>
<path d="M34.6074 26.5801C36.141 25.0618 37.6052 23.6128 39.1066 22.1283C38.9712 22.1029 38.8392 22.0792 38.7071 22.0538C37.8066 21.8812 37.1583 21.1415 37.1278 20.2494C37.0957 19.3353 37.7152 18.5211 38.6462 18.3434C39.0965 18.2571 39.5687 18.2757 40.0308 18.2723C41.2124 18.2639 42.3956 18.2605 43.5771 18.2723C44.982 18.2842 45.7336 19.0374 45.7387 20.4271C45.7437 21.8202 45.7403 23.2133 45.7403 24.6064C45.7403 25.9589 45.136 26.7748 44.0561 26.8882C42.9101 27.0067 42.14 26.3144 41.8793 24.8756C41.6914 25.0516 41.5238 25.2006 41.3647 25.3597C39.6635 27.0609 37.9657 28.7671 36.2629 30.4666C35.2337 31.4941 34.2012 31.4941 33.1754 30.4734C31.3371 28.6435 29.5022 26.8103 27.625 24.9382C27.4506 25.1007 27.2831 25.2514 27.1239 25.4105C25.482 27.0524 23.8536 28.7062 22.1998 30.3363C21.0657 31.4534 19.3341 31.0167 18.9448 29.5322C18.7704 28.867 18.9295 28.2593 19.4052 27.7786C21.6903 25.468 23.9823 23.1609 26.2928 20.8757C27.1053 20.0717 28.2022 20.1258 29.057 20.9722C30.6905 22.5921 32.3121 24.2239 33.9354 25.8557C34.1724 26.0909 34.3924 26.3465 34.6074 26.5801Z" fill="#0FADE9"/>
<path d="M38.9018 39.4906C41.4121 39.4906 43.9224 39.472 46.431 39.4991C47.9645 39.5143 48.8634 40.987 48.1626 42.2802C47.7428 43.0555 47.0437 43.306 46.2041 43.3043C41.9436 43.2992 37.683 43.3026 33.4225 43.3026C32.7471 43.3026 32.0717 43.3094 31.398 43.3009C30.1336 43.2857 29.2601 42.4884 29.272 41.3695C29.2821 40.2659 30.1268 39.4991 31.3743 39.494C33.8812 39.4838 36.3915 39.4906 38.9018 39.4906Z" fill="#0FADE9"/>
<path d="M38.8714 50.4118C41.3394 50.4118 43.8073 50.4101 46.2753 50.4135C47.5584 50.4152 48.4132 51.1887 48.3996 52.3245C48.3861 53.4265 47.5262 54.2102 46.299 54.2119C41.3207 54.2153 36.3425 54.217 31.3642 54.2119C30.1438 54.2102 29.2788 53.4163 29.272 52.3161C29.2636 51.2023 30.1099 50.4168 31.3422 50.4135C33.8508 50.4084 36.3611 50.4135 38.8714 50.4118Z" fill="#0FADE9"/>
<path d="M20.2008 40.8421C21.1792 39.8604 22.0221 39.0072 22.8719 38.1609C23.8029 37.2333 24.9099 37.1537 25.7292 37.9493C26.5586 38.755 26.496 39.9128 25.5582 40.8574C24.3107 42.1151 23.0615 43.3694 21.8055 44.6186C20.7899 45.6291 19.7438 45.6173 18.718 44.5966C18.134 44.0177 17.5466 43.4404 16.9762 42.8497C16.1586 42.0016 16.1366 40.8421 16.9068 40.0787C17.6753 39.3153 18.828 39.3492 19.6744 40.1752C19.8555 40.3496 19.9909 40.5713 20.2008 40.8421Z" fill="#0FADE9"/>
<path d="M20.1991 51.7731C21.1826 50.7812 22.0239 49.9281 22.8736 49.0817C23.791 48.166 24.9252 48.0847 25.7343 48.8685C26.5603 49.6708 26.496 50.8354 25.5599 51.7782C24.2972 53.0494 23.0327 54.319 21.7598 55.5817C20.8 56.5347 19.7319 56.5212 18.7637 55.5597C18.1662 54.9656 17.5653 54.3731 16.9779 53.7688C16.1603 52.9259 16.1383 51.7664 16.9085 50.9996C17.6854 50.2277 18.8145 50.2599 19.6727 51.0944C19.8538 51.267 19.9858 51.4905 20.1991 51.7731Z" fill="#0FADE9"/>
</svg>
