<svg width="48" height="54" viewBox="0 0 48 54" fill="none" xmlns="http://www.w3.org/2000/svg">
<g clip-path="url(#clip0_106_1057)">
<path d="M31.9988 0.0573646C31.9988 0.327552 31.9988 0.571055 31.9988 0.814557C31.9988 8.47154 31.9971 16.1302 32.0005 23.7872C32.0005 25.4984 33.188 26.7292 34.7724 26.6375C35.176 26.6141 35.588 26.4774 35.9632 26.3139C38.0413 25.4133 40.1028 24.476 42.1876 23.5904C42.4677 23.472 42.883 23.4703 43.1649 23.587C44.6042 24.1841 46.0135 24.8496 47.4445 25.4667C47.8265 25.6318 47.9999 25.8219 47.9983 26.2806C47.9799 32.585 47.9933 38.891 47.9832 45.1954C47.9766 49.7902 44.4925 53.2643 39.8609 53.2777C33.7 53.296 27.539 53.2827 21.3781 53.2827C17.0484 53.2827 12.7171 53.2026 8.39075 53.3043C3.67414 53.4161 -0.0284354 49.6501 -8.23904e-05 44.9385C0.0733019 32.6817 0.0215993 20.4248 0.024935 8.16967C0.0266028 4.05848 2.74182 0.822896 6.7863 0.115738C7.23327 0.0373507 7.6986 0.0306794 8.15391 0.0306794C15.896 0.0256759 23.6397 0.0273437 31.3817 0.0290116C31.5668 0.0273437 31.7486 0.0456898 31.9988 0.0573646Z" fill="white"/>
<path d="M37.3743 0.080603C40.3397 -0.142886 43.1666 -0.0261377 45.4565 2.17706C47.0293 3.68978 47.9366 5.52939 47.9683 7.7059C48.0233 11.637 47.9866 15.568 47.9866 19.4991C47.9866 19.5958 47.9683 19.6942 47.9516 19.866C46.7708 19.339 45.6117 18.8837 44.5109 18.3166C43.2817 17.6845 42.1226 17.6461 40.89 18.3016C39.9577 18.7969 38.962 19.1772 37.993 19.6058C37.8096 19.6876 37.6194 19.7543 37.3743 19.8493C37.3743 13.2214 37.3743 6.67685 37.3743 0.080603Z" fill="white"/>
</g>
<defs>
<clipPath id="clip0_106_1057">
<rect width="48" height="53.307" fill="white"/>
</clipPath>
</defs>
</svg>
